<?xml version="1.0" encoding="UTF-8" standalone="no"?>
<!DOCTYPE svg PUBLIC "-//W3C//DTD SVG 1.1//EN" "http://www.w3.org/Graphics/SVG/1.1/DTD/svg11.dtd">
<svg width="100%" height="100%" viewBox="0 0 128 128" version="1.1" xmlns="http://www.w3.org/2000/svg" xmlns:xlink="http://www.w3.org/1999/xlink" xml:space="preserve" xmlns:serif="http://www.serif.com/" style="fill-rule:evenodd;clip-rule:evenodd;stroke-linejoin:round;stroke-miterlimit:2;">
    <g transform="matrix(0.128,0,0,0.128,0,-9.52571e-14)">
        <g transform="matrix(7.8125,0,0,7.8125,0,1.11022e-13)">
            <path d="M128,10C128,7.348 126.946,4.804 125.071,2.929C123.196,1.054 120.652,-0 118,-0L10,-0C7.348,-0 4.804,1.054 2.929,2.929C1.054,4.804 -0,7.348 0,10L0,118C-0,120.652 1.054,123.196 2.929,125.071C4.804,126.946 7.348,128 10,128L118,128C120.652,128 123.196,126.946 125.071,125.071C126.946,123.196 128,120.652 128,118L128,10ZM112,26C112,23.348 110.946,20.804 109.071,18.929C107.196,17.054 104.652,16 102,16L26,16C23.348,16 20.804,17.054 18.929,18.929C17.054,20.804 16,23.348 16,26L16,102C16,104.652 17.054,107.196 18.929,109.071C20.804,110.946 23.348,112 26,112L102,112C104.652,112 107.196,110.946 109.071,109.071C110.946,107.196 112,104.652 112,102L112,26Z" style="fill:rgb(255,88,68);"/>
        </g>
        <g transform="matrix(6.18612,0,0,6.18612,-1803.77,632.592)">
            <path d="M395.966,16.102L349.265,16.102L349.265,3.23L364.558,3.23L364.558,-42.751L348.854,-39.352L348.854,-52.533L380.777,-58.97L380.777,3.23L395.966,3.23L395.966,16.102Z" style="fill:rgb(255,88,68);fill-rule:nonzero;"/>
        </g>
    </g>
</svg>
