<?xml version="1.0" encoding="UTF-8" standalone="no"?>
<!DOCTYPE svg PUBLIC "-//W3C//DTD SVG 1.1//EN" "http://www.w3.org/Graphics/SVG/1.1/DTD/svg11.dtd">
<svg width="100%" height="100%" viewBox="0 0 930 128" version="1.1" xmlns="http://www.w3.org/2000/svg" xmlns:xlink="http://www.w3.org/1999/xlink" xml:space="preserve" xmlns:serif="http://www.serif.com/" style="fill-rule:evenodd;clip-rule:evenodd;stroke-linejoin:round;stroke-miterlimit:2;">
    <g transform="matrix(0.128,0,0,0.128,0,-9.52571e-14)">
        <g transform="matrix(7.8125,0,0,7.8125,0,1.11022e-13)">
            <path d="M128,10C128,7.348 126.946,4.804 125.071,2.929C123.196,1.054 120.652,-0 118,-0L10,-0C7.348,-0 4.804,1.054 2.929,2.929C1.054,4.804 -0,7.348 0,10L0,118C-0,120.652 1.054,123.196 2.929,125.071C4.804,126.946 7.348,128 10,128L118,128C120.652,128 123.196,126.946 125.071,125.071C126.946,123.196 128,120.652 128,118L128,10ZM112,26C112,23.348 110.946,20.804 109.071,18.929C107.196,17.054 104.652,16 102,16L26,16C23.348,16 20.804,17.054 18.929,18.929C17.054,20.804 16,23.348 16,26L16,102C16,104.652 17.054,107.196 18.929,109.071C20.804,110.946 23.348,112 26,112L102,112C104.652,112 107.196,110.946 109.071,109.071C110.946,107.196 112,104.652 112,102L112,26Z" style="fill:rgb(255,88,68);"/>
        </g>
        <g transform="matrix(6.18612,0,0,6.18612,-1803.77,632.592)">
            <path d="M395.966,16.102L349.265,16.102L349.265,3.23L364.558,3.23L364.558,-42.751L348.854,-39.352L348.854,-52.533L380.777,-58.97L380.777,3.23L395.966,3.23L395.966,16.102Z" style="fill:rgb(255,88,68);fill-rule:nonzero;"/>
        </g>
    </g>
    <g transform="matrix(2.10901,0,0,2.10901,-1538.18,-88.4829)">
        <path d="M815.862,61.605L827.662,61.605L827.662,90.205L834.905,90.205L834.905,61.605L846.655,61.605L846.655,55.212L815.862,55.212L815.862,61.605Z" style="fill:rgb(51,51,51);fill-rule:nonzero;"/>
        <path d="M884.255,72.709C884.255,62.606 876.111,54.662 865.708,54.662C855.356,54.662 847.212,62.606 847.212,72.709C847.212,82.811 855.356,90.755 865.708,90.755C876.111,90.755 884.255,82.811 884.255,72.709ZM876.812,72.709C876.812,79.16 872.01,84.112 865.708,84.112C859.457,84.112 854.655,79.16 854.655,72.709C854.655,66.207 859.457,61.305 865.708,61.305C872.01,61.305 876.812,66.207 876.812,72.709Z" style="fill:rgb(51,51,51);fill-rule:nonzero;"/>
        <path d="M889.212,90.205L896.455,90.205L896.455,77.005L906.76,77.005C913.56,77.005 918.505,72.46 918.505,66.208C918.505,59.757 913.66,55.212 906.76,55.212L889.212,55.212L889.212,90.205ZM905.959,61.455C909.111,61.455 911.162,63.357 911.162,66.259C911.162,69.11 909.111,71.012 905.959,71.012L896.455,71.012L896.455,61.455L905.959,61.455Z" style="fill:rgb(51,51,51);fill-rule:nonzero;"/>
        <path d="M958.355,72.709C958.355,62.606 950.411,54.662 940.358,54.662C930.256,54.662 922.312,62.606 922.312,72.709C922.312,82.811 930.256,90.755 940.358,90.755C950.411,90.755 958.355,82.811 958.355,72.709ZM954.462,72.709C954.462,80.86 948.31,87.212 940.358,87.212C932.357,87.212 926.205,80.86 926.205,72.709C926.205,64.507 932.357,58.205 940.358,58.205C948.31,58.205 954.462,64.507 954.462,72.709Z" style="fill:rgb(51,51,51);fill-rule:nonzero;"/>
        <path d="M964.412,55.212L964.412,90.205L968.055,90.205L968.055,61.061L989.561,90.205L992.955,90.205L992.955,55.212L989.312,55.212L989.312,83.607L968.255,55.212L964.412,55.212Z" style="fill:rgb(51,51,51);fill-rule:nonzero;"/>
        <path d="M1000.66,90.205L1025.9,90.205L1025.9,86.812L1004.5,86.812L1004.5,74.205L1018.36,74.205L1018.36,70.862L1004.5,70.862L1004.5,58.605L1025.7,58.605L1025.7,55.212L1000.66,55.212L1000.66,90.205Z" style="fill:rgb(51,51,51);fill-rule:nonzero;"/>
        <path d="M1048.26,84.012C1041.76,84.012 1036.86,79.11 1036.86,72.709C1036.86,66.207 1041.7,61.305 1048.06,61.305C1051.81,61.305 1055.2,62.956 1057.7,66.057L1062.61,61.205C1059.36,57.209 1053.7,54.662 1048.06,54.662C1037.56,54.662 1029.41,62.506 1029.41,72.709C1029.41,82.861 1037.51,90.705 1048.06,90.705C1053.56,90.705 1059.06,88.208 1062.4,84.261L1057.65,79.56C1055.2,82.461 1051.95,84.012 1048.26,84.012Z" style="fill:rgb(51,51,51);fill-rule:nonzero;"/>
        <path d="M1101.36,72.709C1101.36,62.606 1093.21,54.662 1082.81,54.662C1072.46,54.662 1064.31,62.606 1064.31,72.709C1064.31,82.811 1072.46,90.755 1082.81,90.755C1093.21,90.755 1101.36,82.811 1101.36,72.709ZM1093.91,72.709C1093.91,79.16 1089.11,84.112 1082.81,84.112C1076.56,84.112 1071.76,79.16 1071.76,72.709C1071.76,66.207 1076.56,61.305 1082.81,61.305C1089.11,61.305 1093.91,66.207 1093.91,72.709Z" style="fill:rgb(51,51,51);fill-rule:nonzero;"/>
        <path d="M1106.31,90.205L1119.76,90.205C1130.21,90.205 1138.26,82.611 1138.26,72.808C1138.26,62.856 1130.21,55.212 1119.76,55.212L1106.31,55.212L1106.31,90.205ZM1119.71,61.655C1125.91,61.655 1130.76,66.507 1130.76,72.808C1130.76,78.96 1125.91,83.762 1119.71,83.762L1113.56,83.762L1113.56,61.655L1119.71,61.655Z" style="fill:rgb(51,51,51);fill-rule:nonzero;"/>
        <path d="M1143.21,90.205L1170.31,90.205L1170.31,83.912L1150.45,83.912L1150.45,75.605L1163.4,75.605L1163.4,69.512L1150.45,69.512L1150.45,61.505L1170.11,61.505L1170.11,55.212L1143.21,55.212L1143.21,90.205Z" style="fill:rgb(51,51,51);fill-rule:nonzero;"/>
    </g>
</svg>
